HIERARCHY
ROOT Hips
{
	OFFSET -3.958830 18.904000 13.208200
	CHANNELS 6 Xposition Yposition Zposition Zrotation Yrotation Xrotation 
	JOINT LHipJoint
	{
		OFFSET 0.000000 0.000000 0.000000
		CHANNELS 3 Zrotation Yrotation Xrotation
		JOINT LeftUpLeg
		{
			OFFSET 1.800000 -1.400000 0.085000
			CHANNELS 3 Zrotation Yrotation Xrotation
			JOINT LeftLeg
			{
				OFFSET 2.215000 -6.000000 0.000000
				CHANNELS 3 Zrotation Yrotation Xrotation
				JOINT LeftFoot
				{
					OFFSET 2.500000 -6.900000 0.000000
					CHANNELS 3 Zrotation Yrotation Xrotation
					JOINT LeftToeBase
					{
						OFFSET 0.200000 -0.500000 1.950000
						CHANNELS 3 Zrotation Yrotation Xrotation
						End Site
						{
							OFFSET 0.000000 0.000000 0.000000
						}
					}
				}
			}
		}
	}
	JOINT RHipJoint
	{
		OFFSET 0.000000 0.000000 0.000000
		CHANNELS 3 Zrotation Yrotation Xrotation
		JOINT RightUpLeg
		{
			OFFSET -1.800000 -1.400000 0.085000
			CHANNELS 3 Zrotation Yrotation Xrotation
			JOINT RightLeg
			{
				OFFSET -2.215000 -6.000000 0.000000
				CHANNELS 3 Zrotation Yrotation Xrotation
				JOINT RightFoot
				{
					OFFSET -2.500000 -6.900000 0.000000
					CHANNELS 3 Zrotation Yrotation Xrotation
					JOINT RightToeBase
					{
						OFFSET -0.200000 -0.500000 1.950000
						CHANNELS 3 Zrotation Yrotation Xrotation
						End Site
						{
							OFFSET 0.000000 0.000000 0.000000
						}
					}
				}
			}
		}
	}
	JOINT LowerBack
	{
		OFFSET 0.000000 0.000000 0.000000
		CHANNELS 3 Zrotation Yrotation Xrotation
		JOINT Spine
		{
			OFFSET -0.087000 1.940000 -0.288900
			CHANNELS 3 Zrotation Yrotation Xrotation
			JOINT Spine1
			{
				OFFSET 0.000000 1.950000 0.060000
				CHANNELS 3 Zrotation Yrotation Xrotation
				JOINT Neck
				{
					OFFSET 0.000000 0.000000 0.000000
					CHANNELS 3 Zrotation Yrotation Xrotation
					JOINT Neck1
					{
						OFFSET 0.000000 1.600000 0.340000
						CHANNELS 3 Zrotation Yrotation Xrotation
						JOINT Head
						{
							OFFSET 0.000000 1.667000 -0.240000
							CHANNELS 3 Zrotation Yrotation Xrotation
							End Site
							{
								OFFSET 0.000000 0.000000 0.000000
							}
						}
					}
				}
				JOINT LeftShoulder
				{
					OFFSET 0.000000 0.000000 0.000000
					CHANNELS 3 Zrotation Yrotation Xrotation
					JOINT LeftArm
					{
						OFFSET 2.700000 1.550000 -0.730000
						CHANNELS 3 Zrotation Yrotation Xrotation
						JOINT LeftForeArm
						{
							OFFSET 5.450000 0.000000 0.000000
							CHANNELS 3 Zrotation Yrotation Xrotation
							JOINT LeftHand
							{
								OFFSET 3.450000 0.000000 0.000000
								CHANNELS 3 Zrotation Yrotation Xrotation
								JOINT LeftHandIndex1
								{
									OFFSET 0.750000 0.000000 0.000000
									CHANNELS 3 Zrotation Yrotation Xrotation
									End Site
									{
										OFFSET 0.000000 0.000000 0.000000
									}
								}
							}
						}
					}
				}
				JOINT RightShoulder
				{
					OFFSET 0.000000 0.000000 0.000000
					CHANNELS 3 Zrotation Yrotation Xrotation
					JOINT RightArm
					{
						OFFSET -2.700000 1.550000 -0.730000
						CHANNELS 3 Zrotation Yrotation Xrotation
						JOINT RightForeArm
						{
							OFFSET -5.450000 0.000000 0.000000
							CHANNELS 3 Zrotation Yrotation Xrotation
							JOINT RightHand
							{
								OFFSET -3.450000 0.000000 0.000000
								CHANNELS 3 Zrotation Yrotation Xrotation
								JOINT RightHandIndex1
								{
									OFFSET -0.750000 0.000000 0.000000
									CHANNELS 3 Zrotation Yrotation Xrotation
									End Site
									{
										OFFSET 0.000000 0.000000 0.000000
									}
								}
							}
						}
					}
				}
			}
		}
	}
}
MOTION
Frames: 7
Frame Time: 0.016667
-1.945840 16.552890 -1.019900 -0.451235 -11.955391 -2.484116 -15.203478 10.693347 5.097563 32.152264 0.589084 -31.365530 -19.609502 22.093268 41.572966 0.784612 11.417789 0.468764 0.154750 -0.051840 0.076930 18.708261 -8.665218 3.898726 -22.784922 8.590526 -37.345771 17.350978 -20.833331 54.316387 -1.543243 -10.337842 0.718708 -0.075110 0.264090 0.332960 -4.350824 -0.532948 -9.451673 26.836495 -11.764877 31.236649 -20.629313 -1.078206 7.807649 16.559477 -6.658798 -10.490330 -9.753472 10.516112 54.323066 -10.857800 4.695990 -3.806960 -26.419507 -1.367269 -0.195607 -48.314466 1.096169 -13.268206 -34.662441 -47.025856 9.296049 -3.510926 3.319529 0.482350 0.103750 0.098740 0.132260 -7.098556 10.417736 7.285634 19.462682 22.192621 -8.175334 -131.778981 -2.078056 -15.569761 2.225014 -2.265626 -0.108080 0.174630 0.162690 -0.048040 
-1.960710 16.532680 -1.035060 -0.332041 -12.138369 -2.087767 -15.231061 10.643654 5.158034 32.120236 0.677759 -32.123672 -19.708129 22.368164 41.973393 0.824237 11.462981 0.436974 0.174080 -0.019910 0.099460 18.700445 -8.527799 3.984769 -23.098751 8.907676 -38.176722 17.812317 -21.073067 54.530320 -1.580016 -10.404440 0.688565 -0.076430 0.208840 0.339640 -4.309937 -0.632465 -9.525258 26.780267 -11.687127 31.762058 -20.019556 -0.910156 7.357342 16.398281 -6.568853 -10.719385 -9.529402 10.206060 55.095397 -12.145350 4.779360 -4.533980 -27.495259 -1.790500 -0.018274 -47.647564 1.825392 -13.548840 -35.426125 -47.527677 9.788873 -3.454932 3.357115 0.481580 0.073710 0.133200 0.121900 -5.753342 11.083659 7.509804 22.961196 22.761478 -7.344739 -133.707381 -0.465301 -20.634345 2.170732 -2.269617 -0.072160 0.144500 0.144690 -0.045610 
-1.985510 16.496640 -1.067240 -0.013145 -12.652034 -1.653038 -15.272038 10.572596 5.230250 31.914494 0.827944 -33.156028 -19.914735 22.865043 42.728087 0.858765 11.563016 0.374046 0.216850 0.033910 0.145210 18.690040 -8.307991 4.132534 -23.721774 9.531132 -39.606696 18.298180 -21.449296 55.266040 -1.659648 -10.529573 0.647402 -0.069640 0.117420 0.334830 -4.254907 -0.797597 -9.631626 26.888228 -11.609992 33.079313 -19.096315 -0.499458 6.611199 15.929473 -6.350696 -11.218047 -9.174793 9.935000 57.190463 -13.801340 4.603640 -6.831350 -28.848065 -2.692410 0.437675 -46.927500 3.197658 -14.092574 -37.404379 -48.749173 10.946873 -3.353387 3.374392 0.524320 0.006840 0.198360 0.106750 -3.545147 12.271756 7.867588 29.424318 23.299442 -6.426969 -136.087301 2.774707 -31.269542 2.066596 -2.199021 -0.036910 0.133270 0.122200 -0.056160 
-2.011860 16.459540 -1.103010 0.244071 -12.738007 -1.180699 -15.303925 10.470767 5.322481 31.690020 0.748904 -34.537236 -20.008525 23.224779 43.718326 0.883227 11.642340 0.314853 0.279320 0.113610 0.208810 18.690077 -8.086434 4.269526 -24.619170 9.863211 -40.845599 19.390923 -22.211942 55.487670 -1.771058 -10.640830 0.603388 -0.056020 -0.004750 0.321780 -4.226340 -0.977954 -9.746398 27.667488 -11.648093 34.382128 -18.178351 0.181260 5.538224 14.983259 -5.162718 -11.922511 -7.456135 8.512236 61.203087 -15.457330 3.588760 -10.117490 -30.768207 -5.007678 1.465453 -45.776552 4.750274 -14.542361 -39.059680 -49.718213 11.979592 -3.202021 3.371551 0.599230 -0.094160 0.298160 0.096080 0.111947 13.921816 8.371293 37.560183 21.502367 -7.283652 -137.285321 8.452336 -48.267812 1.992549 -2.009351 0.002270 0.134730 0.082990 -0.067060 
-2.043820 16.418950 -1.140710 0.618692 -12.494564 -0.629857 -15.321389 10.333473 5.396566 31.324507 0.518353 -36.051112 -19.993320 23.399574 44.670760 0.914611 11.669930 0.266761 0.343810 0.192990 0.275900 18.707475 -7.878601 4.417315 -25.820670 9.956793 -42.193951 20.720622 -23.227361 55.484905 -1.882296 -10.761966 0.550062 -0.049500 -0.138760 0.309660 -4.239222 -1.113597 -9.854639 28.625549 -11.628018 35.396357 -17.194753 0.843686 4.148629 13.438672 -3.667897 -12.527745 -5.473612 6.524706 65.379249 -15.869690 2.139990 -13.011840 -32.547090 -7.508293 2.761065 -45.063446 6.620830 -14.996450 -40.628179 -50.723630 13.026000 -3.049676 3.387713 0.664780 -0.202130 0.395690 0.076870 4.807228 15.222405 8.691337 45.566099 17.584947 -10.332869 -135.975161 17.538964 -68.921967 2.026138 -1.731533 0.055570 0.111690 0.038410 -0.078130 
-2.076850 16.385340 -1.167110 0.952424 -12.236367 0.100487 -15.352710 10.231938 5.471206 31.003964 0.250215 -37.504274 -20.005266 23.465333 45.404163 0.938858 11.683195 0.237154 0.399580 0.258140 0.332180 18.710854 -7.654790 4.542218 -26.927503 9.907141 -43.462967 21.924178 -24.195036 55.314765 -1.981534 -10.846485 0.518576 -0.046060 -0.238440 0.295550 -4.211502 -1.361229 -9.950047 29.474172 -11.544479 36.130750 -16.047610 1.447972 2.239664 11.921768 -2.738933 -13.023568 -4.903603 5.183452 69.559940 -14.844910 0.800190 -14.947920 -34.430093 -9.382657 3.741701 -44.926637 8.423233 -15.462009 -41.188434 -51.125314 13.341726 -2.927382 3.376851 0.731400 -0.293250 0.480000 0.068610 9.580943 16.313399 8.818648 51.759436 12.573672 -15.042807 -131.355872 28.076251 -82.291601 2.123956 -1.464320 0.093200 0.104580 -0.002380 -0.087480 
-2.102430 16.348380 -1.178250 1.237966 -12.012914 1.007157 -15.383112 10.100631 5.540508 30.810633 0.064419 -38.890839 -20.050544 23.549403 46.008170 0.942629 11.721464 0.209520 0.445860 0.306070 0.387760 18.720346 -7.437369 4.674776 -28.192584 9.714610 -44.804311 23.253627 -25.287534 54.982256 -2.077653 -10.947415 0.491463 -0.040040 -0.306490 0.287070 -4.195526 -1.542021 -10.039056 30.348242 -11.225661 36.176948 -15.033790 1.969990 0.659573 10.836618 -2.168771 -13.198450 -4.791334 4.111868 72.879434 -13.693380 0.149060 -16.442210 -35.272227 -9.900043 4.033052 -45.921927 9.093070 -15.720692 -40.674060 -50.800398 12.933503 -2.889308 3.312540 0.801650 -0.355210 0.549580 0.064380 12.559638 16.222709 8.792818 56.579202 7.928995 -19.224945 -120.066084 41.267900 -84.741697 2.207014 -1.086101 0.107450 0.111790 -0.034430 -0.107710 
